<svg width="21" height="18" viewBox="0 0 21 18" fill="none" xmlns="http://www.w3.org/2000/svg">
<path d="M9.56286 2.46421C11.0888 1.94153 12.7514 1.98254 14.2497 2.57982C15.748 3.1771 16.9829 4.29115 17.7308 5.72025C18.4787 7.14936 18.6901 8.79902 18.3267 10.3705C17.9634 11.942 17.0493 13.3315 15.75 14.2873C14.4507 15.243 12.8522 15.702 11.2438 15.581C9.63534 15.4599 8.12343 14.767 6.98181 13.6275L5.56895 15.0431C7.04884 16.5201 9.00872 17.4184 11.0937 17.5753C13.1787 17.7322 15.2509 17.1373 16.9352 15.8983C18.6194 14.6593 19.8043 12.8582 20.2753 10.8211C20.7463 8.78392 20.4723 6.64547 19.5028 4.79293C18.5334 2.94039 16.9326 1.49624 14.9903 0.721993C13.0481 -0.0522563 10.8928 -0.10542 8.91476 0.57213C6.93671 1.24968 5.26667 2.61315 4.20705 4.41564C3.48144 5.64997 3.07492 7.0343 3.00956 8.4452L1.50009 6.93573L0.0858796 8.34995L4.00009 12.2642L7.91431 8.34995L6.50009 6.93573L5.01377 8.42205C5.08039 7.37374 5.39128 6.34764 5.9312 5.4292C6.74862 4.03871 8.03694 2.98689 9.56286 2.46421Z" fill="white"/>
</svg>
