<svg width="21" height="19" viewBox="0 0 21 19" fill="none" xmlns="http://www.w3.org/2000/svg">
<path fill-rule="evenodd" clip-rule="evenodd" d="M10.2503 2.11607C10.5817 1.82176 10.9521 1.53308 11.3763 1.28901C12.1551 0.840865 13.0775 0.561541 14.25 0.561541H14.252C15.825 0.564731 17.3909 1.16629 18.6007 2.29896C21.2839 4.81104 20.7294 9.06736 18.5086 11.6517C17.429 12.9081 15.4676 14.4683 13.8489 15.673C13.0255 16.2857 12.2662 16.8243 11.7128 17.2096C11.4359 17.4025 11.2101 17.5572 11.0531 17.6641C10.9746 17.7175 10.9132 17.759 10.8713 17.7873L10.8231 17.8198L10.806 17.8312L10.25 18L9.69394 17.8311L9.67662 17.8195L9.62847 17.7871C9.58653 17.7588 9.52522 17.7173 9.44677 17.6639C9.2899 17.557 9.06431 17.4023 8.78765 17.2095C8.23471 16.8241 7.47588 16.2855 6.65288 15.6728C5.03464 14.4681 3.07398 12.9083 1.99239 11.6526C-0.234929 9.06688 -0.783659 4.81036 1.8993 2.2989C3.10869 1.16681 4.67371 0.565284 6.24591 0.561544C7.42062 0.55875 8.34437 0.838332 9.124 1.2875C9.54837 1.532 9.91897 1.82138 10.2503 2.11607ZM10.25 18L9.69394 17.8311L10.2497 18.2028L10.806 17.8312L10.25 18Z" fill="white"/>
</svg>
